<svg width="512" height="512" viewBox="0 0 512 512" fill="none" xmlns="http://www.w3.org/2000/svg">
  <defs>
    <!-- Background subtle gradient -->
    <linearGradient id="bgGrad" x1="0" y1="0" x2="0" y2="1">
      <stop offset="0%" stop-color="#F0F8FF" />
      <stop offset="100%" stop-color="#E6F4FE" />
    </linearGradient>
    
    <!-- Primary brand gradient (Charcoal to Medium Gray) -->
    <linearGradient id="brandGrad" x1="0" y1="0" x2="1" y2="1">
      <stop offset="0%" stop-color="#171717" />
      <stop offset="100%" stop-color="#525252" />
    </linearGradient>

    <!-- Subtle drop shadow for the clipboard -->
    <filter id="shadow" x="-10%" y="-10%" width="125%" height="125%" filterUnits="userSpaceOnUse">
      <feDropShadow dx="0" dy="8" stdDeviation="12" flood-color="#171717" flood-opacity="0.08" />
    </filter>
  </defs>

  <!-- App Icon Rounded Background -->
  <rect width="512" height="512" rx="116" fill="url(#bgGrad)" />
  
  <!-- Outer ambient ring -->
  <circle cx="256" cy="256" r="210" stroke="#171717" stroke-opacity="0.02" stroke-width="40" fill="none" />

  <!-- Main Illustration Group (Centered and Scaled) -->
  <g transform="translate(256, 245) scale(1.75) translate(-140, -110)">
    <!-- Clipboard/Calendar Card with Shadow -->
    <rect x="60" y="30" width="160" height="150" rx="20" fill="#FFFFFF" stroke="#E5E5E5" stroke-width="2" filter="url(#shadow)" />
    
    <!-- Calendar Header clip -->
    <rect x="110" y="20" width="60" height="20" rx="6" fill="url(#brandGrad)" />
    <circle cx="125" cy="20" r="4" fill="#FFFFFF" />
    <circle cx="155" cy="20" r="4" fill="#FFFFFF" />

    <!-- Task Line 1 (Completed) -->
    <rect x="90" y="70" width="100" height="12" rx="4" fill="url(#brandGrad)" opacity="0.85" />
    <circle cx="80" cy="76" r="8" fill="#D97706" />
    <path d="M76.5 76L78.5 78L83.5 73.5" stroke="#FFFFFF" stroke-width="2" stroke-linecap="round" stroke-linejoin="round" />

    <!-- Task Line 2 (Pending) -->
    <rect x="90" y="102" width="80" height="12" rx="4" fill="#F3F4F6" />
    <circle cx="80" cy="108" r="8" fill="#E5E7EB" />

    <!-- Task Line 3 (Completed) -->
    <rect x="90" y="134" width="90" height="12" rx="4" fill="url(#brandGrad)" opacity="0.85" />
    <circle cx="80" cy="140" r="8" fill="#D97706" />
    <path d="M76.5 140L78.5 142L83.5 137.5" stroke="#FFFFFF" stroke-width="2" stroke-linecap="round" stroke-linejoin="round" />

    <!-- Clock overlay representing time management -->
    <g transform="translate(190, 140)">
      <circle cx="25" cy="25" r="24" fill="#FFFFFF" stroke="url(#brandGrad)" stroke-width="3.5" />
      <path d="M25 11V25H34" stroke="#171717" stroke-width="3" stroke-linecap="round" stroke-linejoin="round" />
      <circle cx="25" cy="25" r="2.5" fill="#D97706" />
    </g>

    <!-- Pencil Graphic -->
    <g transform="translate(42, 122) rotate(-45)">
      <rect x="0" y="0" width="12" height="60" rx="3" fill="url(#brandGrad)" />
      <path d="M0 0 L6 -8 L12 0 Z" fill="#D97706" />
    </g>

    <!-- Sparkles of productivity -->
    <g transform="translate(48, 48)">
      <path d="M4 0 L5.2 2.8 L8 4 L5.2 5.2 L4 8 L2.8 5.2 L0 4 L2.8 2.8 Z" fill="#D97706" />
    </g>
    <g transform="translate(210, 40)">
      <path d="M3 0 L3.9 2.1 L6 3 L3.9 3.9 L3 6 L2.1 3.9 L0 3 L2.1 2.1 Z" fill="#D97706" opacity="0.8" />
    </g>
  </g>
</svg>
